<mxfile host="Electron" modified="2024-03-21T15:15:00.533Z" agent="Mozilla/5.0 (Windows NT 10.0; Win64; x64) AppleWebKit/537.36 (KHTML, like Gecko) draw.io/24.0.4 Chrome/120.0.6099.109 Electron/28.1.0 Safari/537.36" etag="yR3AZrKG9SBLN9ukGsWe" version="24.0.4" type="device">
  <diagram name="第 1 页" id="2ZHAzWuS2HLpJFy_Wmts">
    <mxGraphModel dx="2060" dy="1190" grid="1" gridSize="10" guides="1" tooltips="1" connect="1" arrows="1" fold="1" page="1" pageScale="1" pageWidth="1100" pageHeight="850" math="0" shadow="0">
      <root>
        <mxCell id="0" />
        <mxCell id="1" parent="0" />
        <mxCell id="lS5N0mCX3ykKAMGHeJQ0-16" style="edgeStyle=orthogonalEdgeStyle;rounded=0;orthogonalLoop=1;jettySize=auto;html=1;entryX=0.5;entryY=0;entryDx=0;entryDy=0;strokeWidth=2;" edge="1" parent="1" source="lS5N0mCX3ykKAMGHeJQ0-1" target="lS5N0mCX3ykKAMGHeJQ0-5">
          <mxGeometry relative="1" as="geometry">
            <Array as="points">
              <mxPoint x="160" y="80" />
              <mxPoint x="160" y="80" />
            </Array>
          </mxGeometry>
        </mxCell>
        <mxCell id="lS5N0mCX3ykKAMGHeJQ0-1" value="&lt;div style=&quot;font-family: Consolas, &amp;quot;Courier New&amp;quot;, monospace; font-size: 14px; line-height: 19px; white-space: pre;&quot;&gt;model.generate(input_ids=inputs[&lt;span style=&quot;&quot;&gt;&quot;input_ids&quot;&lt;/span&gt;].to(&lt;span style=&quot;&quot;&gt;&quot;cuda&quot;&lt;/span&gt;), max_new_tokens=&lt;span style=&quot;&quot;&gt;50&lt;/span&gt;)&lt;/div&gt;" style="rounded=1;whiteSpace=wrap;html=1;fillColor=#ffcc99;strokeColor=#36393d;fontColor=default;labelBackgroundColor=none;" vertex="1" parent="1">
          <mxGeometry x="40" y="40" width="580" height="30" as="geometry" />
        </mxCell>
        <mxCell id="lS5N0mCX3ykKAMGHeJQ0-17" style="edgeStyle=orthogonalEdgeStyle;rounded=0;orthogonalLoop=1;jettySize=auto;html=1;entryX=0;entryY=0.5;entryDx=0;entryDy=0;strokeColor=default;strokeWidth=2;align=center;verticalAlign=middle;fontFamily=Helvetica;fontSize=11;fontColor=default;labelBackgroundColor=default;endArrow=classic;" edge="1" parent="1" source="lS5N0mCX3ykKAMGHeJQ0-5" target="lS5N0mCX3ykKAMGHeJQ0-11">
          <mxGeometry relative="1" as="geometry" />
        </mxCell>
        <mxCell id="lS5N0mCX3ykKAMGHeJQ0-5" value="&lt;div style=&quot;font-family: Consolas, &amp;quot;Courier New&amp;quot;, monospace; font-size: 14px; line-height: 19px; white-space: pre;&quot;&gt;&lt;div style=&quot;line-height: 19px;&quot;&gt;PeftModelForCausalLM(PeftModel)&lt;/div&gt;&lt;/div&gt;" style="rounded=1;whiteSpace=wrap;html=1;fillColor=#cce5ff;strokeColor=#36393d;labelBackgroundColor=none;" vertex="1" parent="1">
          <mxGeometry x="40" y="110" width="240" height="30" as="geometry" />
        </mxCell>
        <mxCell id="lS5N0mCX3ykKAMGHeJQ0-7" value="&lt;div style=&quot;font-family: Consolas, &amp;quot;Courier New&amp;quot;, monospace; font-size: 14px; line-height: 19px; white-space: pre;&quot;&gt;&lt;div style=&quot;line-height: 19px;&quot;&gt;OPTAttention(nn.Module)&lt;/div&gt;&lt;/div&gt;" style="rounded=1;whiteSpace=wrap;html=1;fillColor=#cce5ff;strokeColor=#36393d;labelBackgroundColor=none;fontColor=default;" vertex="1" parent="1">
          <mxGeometry x="70" y="180" width="180" height="30" as="geometry" />
        </mxCell>
        <mxCell id="lS5N0mCX3ykKAMGHeJQ0-21" value="" style="edgeStyle=orthogonalEdgeStyle;rounded=0;orthogonalLoop=1;jettySize=auto;html=1;strokeColor=default;strokeWidth=2;align=center;verticalAlign=middle;fontFamily=Helvetica;fontSize=11;fontColor=default;labelBackgroundColor=default;endArrow=classic;" edge="1" parent="1" source="lS5N0mCX3ykKAMGHeJQ0-8">
          <mxGeometry relative="1" as="geometry">
            <mxPoint x="385" y="320" as="targetPoint" />
          </mxGeometry>
        </mxCell>
        <mxCell id="lS5N0mCX3ykKAMGHeJQ0-8" value="&lt;div style=&quot;font-family: Consolas, &amp;quot;Courier New&amp;quot;, monospace; font-size: 14px; line-height: 19px; white-space: pre;&quot;&gt;forward&lt;/div&gt;" style="rounded=1;whiteSpace=wrap;html=1;fillColor=#ffcc99;strokeColor=#36393d;fontColor=default;labelBackgroundColor=none;" vertex="1" parent="1">
          <mxGeometry x="355" y="250" width="60" height="30" as="geometry" />
        </mxCell>
        <mxCell id="lS5N0mCX3ykKAMGHeJQ0-18" style="edgeStyle=orthogonalEdgeStyle;rounded=0;orthogonalLoop=1;jettySize=auto;html=1;entryX=0.5;entryY=0;entryDx=0;entryDy=0;strokeColor=default;strokeWidth=2;align=center;verticalAlign=middle;fontFamily=Helvetica;fontSize=11;fontColor=default;labelBackgroundColor=default;endArrow=classic;" edge="1" parent="1" source="lS5N0mCX3ykKAMGHeJQ0-11" target="lS5N0mCX3ykKAMGHeJQ0-13">
          <mxGeometry relative="1" as="geometry" />
        </mxCell>
        <mxCell id="lS5N0mCX3ykKAMGHeJQ0-11" value="&lt;div style=&quot;font-family: Consolas, &amp;quot;Courier New&amp;quot;, monospace; font-size: 14px; line-height: 19px; white-space: pre;&quot;&gt;generate&lt;/div&gt;" style="rounded=1;whiteSpace=wrap;html=1;fillColor=#ffcc99;strokeColor=#36393d;fontColor=default;labelBackgroundColor=none;" vertex="1" parent="1">
          <mxGeometry x="340" y="110" width="90" height="30" as="geometry" />
        </mxCell>
        <mxCell id="lS5N0mCX3ykKAMGHeJQ0-12" value="&lt;div style=&quot;font-family: Consolas, &amp;quot;Courier New&amp;quot;, monospace; font-size: 14px; line-height: 19px; white-space: pre;&quot;&gt;&lt;div style=&quot;line-height: 19px;&quot;&gt;Linear(nn.Linear, LoraLayer)&lt;/div&gt;&lt;/div&gt;" style="rounded=1;whiteSpace=wrap;html=1;fillColor=#cce5ff;strokeColor=#36393d;labelBackgroundColor=none;fontColor=default;" vertex="1" parent="1">
          <mxGeometry x="50" y="250" width="220" height="30" as="geometry" />
        </mxCell>
        <mxCell id="lS5N0mCX3ykKAMGHeJQ0-20" style="edgeStyle=orthogonalEdgeStyle;rounded=0;orthogonalLoop=1;jettySize=auto;html=1;entryX=0.5;entryY=0;entryDx=0;entryDy=0;strokeColor=default;strokeWidth=2;align=center;verticalAlign=middle;fontFamily=Helvetica;fontSize=11;fontColor=default;labelBackgroundColor=default;endArrow=classic;" edge="1" parent="1" source="lS5N0mCX3ykKAMGHeJQ0-13" target="lS5N0mCX3ykKAMGHeJQ0-8">
          <mxGeometry relative="1" as="geometry" />
        </mxCell>
        <mxCell id="lS5N0mCX3ykKAMGHeJQ0-13" value="&lt;div style=&quot;font-family: Consolas, &amp;quot;Courier New&amp;quot;, monospace; font-size: 14px; line-height: 19px; white-space: pre;&quot;&gt;forward&lt;/div&gt;" style="rounded=1;whiteSpace=wrap;html=1;fillColor=#ffcc99;strokeColor=#36393d;fontColor=default;labelBackgroundColor=none;" vertex="1" parent="1">
          <mxGeometry x="355" y="180" width="60" height="30" as="geometry" />
        </mxCell>
        <mxCell id="lS5N0mCX3ykKAMGHeJQ0-14" value="&lt;div style=&quot;color: #d4d4d4;background-color: #1e1e1e;font-family: Consolas, &#39;Courier New&#39;, monospace;font-weight: normal;font-size: 14px;line-height: 19px;white-space: pre;&quot;&gt;&lt;div&gt;&lt;span style=&quot;color: #d4d4d4;&quot;&gt;outputs = &lt;/span&gt;&lt;span style=&quot;color: #569cd6;&quot;&gt;self&lt;/span&gt;&lt;span style=&quot;color: #d4d4d4;&quot;&gt;.base_model.generate(**kwargs)&lt;/span&gt;&lt;/div&gt;&lt;/div&gt;" style="text;whiteSpace=wrap;html=1;" vertex="1" parent="1">
          <mxGeometry x="500" y="110" width="370" height="40" as="geometry" />
        </mxCell>
        <mxCell id="lS5N0mCX3ykKAMGHeJQ0-19" value="&lt;div style=&quot;color: #d4d4d4;background-color: #1e1e1e;font-family: Consolas, &#39;Courier New&#39;, monospace;font-weight: normal;font-size: 14px;line-height: 19px;white-space: pre;&quot;&gt;&lt;div&gt;&lt;span style=&quot;color: rgb(86, 156, 214);&quot;&gt;self&lt;/span&gt;.scaling = &lt;span style=&quot;color: rgb(86, 156, 214);&quot;&gt;self&lt;/span&gt;.head_dim**-&lt;span style=&quot;color: rgb(181, 206, 168);&quot;&gt;0.5&lt;/span&gt;&lt;/div&gt;&lt;div&gt;&lt;span style=&quot;color: #d4d4d4;&quot;&gt;query_states = &lt;/span&gt;&lt;span style=&quot;color: #569cd6;&quot;&gt;self&lt;/span&gt;&lt;span style=&quot;color: #d4d4d4;&quot;&gt;.q_proj(hidden_states) * &lt;/span&gt;&lt;span style=&quot;color: #569cd6;&quot;&gt;self&lt;/span&gt;&lt;span style=&quot;color: #d4d4d4;&quot;&gt;.scaling&lt;/span&gt;&lt;/div&gt;&lt;/div&gt;" style="text;whiteSpace=wrap;html=1;fontFamily=Helvetica;fontSize=11;fontColor=default;labelBackgroundColor=default;" vertex="1" parent="1">
          <mxGeometry x="500" y="175" width="460" height="40" as="geometry" />
        </mxCell>
        <mxCell id="lS5N0mCX3ykKAMGHeJQ0-22" value="&lt;div style=&quot;font-family: Consolas, &amp;quot;Courier New&amp;quot;, monospace; font-size: 14px; text-align: left; white-space: pre;&quot;&gt;result = F.linear(x, transpose(self.weight, self.fan_in_fan_out), bias=self.bias)&lt;/div&gt;&lt;br style=&quot;font-family: Consolas, &amp;quot;Courier New&amp;quot;, monospace; font-size: 14px; text-align: left; white-space: pre;&quot;&gt;&lt;div style=&quot;font-family: Consolas, &amp;quot;Courier New&amp;quot;, monospace; font-size: 14px; text-align: left; white-space: pre;&quot;&gt;x = x.to(self.lora_A[self.active_adapter].weight.dtype)&lt;/div&gt;&lt;br style=&quot;font-family: Consolas, &amp;quot;Courier New&amp;quot;, monospace; font-size: 14px; text-align: left; white-space: pre;&quot;&gt;&lt;div style=&quot;font-family: Consolas, &amp;quot;Courier New&amp;quot;, monospace; font-size: 14px; text-align: left; white-space: pre;&quot;&gt;result += (&lt;/div&gt;&lt;div style=&quot;font-family: Consolas, &amp;quot;Courier New&amp;quot;, monospace; font-size: 14px; text-align: left; white-space: pre;&quot;&gt;&amp;nbsp; &amp;nbsp; self.lora_B[self.active_adapter](&lt;/div&gt;&lt;div style=&quot;font-family: Consolas, &amp;quot;Courier New&amp;quot;, monospace; font-size: 14px; text-align: left; white-space: pre;&quot;&gt;&amp;nbsp; &amp;nbsp; &amp;nbsp; &amp;nbsp; self.lora_A[self.active_adapter](self.lora_dropout[self.active_adapter](x))&lt;/div&gt;&lt;div style=&quot;font-family: Consolas, &amp;quot;Courier New&amp;quot;, monospace; font-size: 14px; text-align: left; white-space: pre;&quot;&gt;&amp;nbsp; &amp;nbsp; )&lt;/div&gt;&lt;div style=&quot;font-family: Consolas, &amp;quot;Courier New&amp;quot;, monospace; font-size: 14px; text-align: left; white-space: pre;&quot;&gt;&amp;nbsp; &amp;nbsp; * self.scaling[self.active_adapter]&lt;/div&gt;&lt;div style=&quot;font-family: Consolas, &amp;quot;Courier New&amp;quot;, monospace; font-size: 14px; text-align: left; white-space: pre;&quot;&gt;)&lt;/div&gt;" style="rounded=1;whiteSpace=wrap;html=1;fontFamily=Helvetica;fontSize=11;fontColor=default;labelBackgroundColor=none;fillColor=#e51400;strokeColor=#B20000;" vertex="1" parent="1">
          <mxGeometry x="57.5" y="320" width="655" height="180" as="geometry" />
        </mxCell>
        <mxCell id="lS5N0mCX3ykKAMGHeJQ0-24" value="&lt;div style=&quot;color: #d4d4d4;background-color: #1e1e1e;font-family: Consolas, &#39;Courier New&#39;, monospace;font-weight: normal;font-size: 14px;line-height: 19px;white-space: pre;&quot;&gt;&lt;div&gt;&lt;span style=&quot;color: #569cd6;&quot;&gt;self&lt;/span&gt;&lt;span style=&quot;color: #d4d4d4;&quot;&gt;.scaling[adapter_name] = lora_alpha / r&lt;/span&gt;&lt;/div&gt;&lt;/div&gt;" style="text;whiteSpace=wrap;html=1;fontFamily=Helvetica;fontSize=11;fontColor=default;labelBackgroundColor=default;" vertex="1" parent="1">
          <mxGeometry x="360" y="490" width="360" height="40" as="geometry" />
        </mxCell>
      </root>
    </mxGraphModel>
  </diagram>
</mxfile>
